MerriweatherSans-ExtraBoldItalic.ufo
<glyph name="asterisk" format="1">
  <advance width="1366"/>
  <unicode hex="002A"/>
  <outline>
    <contour>
      <point x="260" y="759" type="line"/>
      <point x="542" y="964" type="line"/>
      <point x="657" y="1048" type="line"/>
      <point x="629" y="910" type="line"/>
      <point x="552" y="580" type="line"/>
      <point x="796" y="579" type="line"/>
      <point x="784" y="910" type="line"/>
      <point x="778" y="1048" type="line"/>
      <point x="881" y="964" type="line"/>
      <point x="1120" y="761" type="line"/>
      <point x="1270" y="969" type="line"/>
      <point x="971" y="1095" type="line"/>
      <point x="853" y="1148" type="line"/>
      <point x="982" y="1203" type="line"/>
      <point x="1309" y="1331" type="line"/>
      <point x="1212" y="1541" type="line"/>
      <point x="920" y="1336" type="line"/>
      <point x="799" y="1255" type="line"/>
      <point x="832" y="1390" type="line"/>
      <point x="909" y="1721" type="line"/>
      <point x="671" y="1721" type="line"/>
      <point x="679" y="1390" type="line"/>
      <point x="678" y="1255" type="line"/>
      <point x="580" y="1336" type="line"/>
      <point x="322" y="1539" type="line"/>
      <point x="192" y="1331" type="line"/>
      <point x="491" y="1203" type="line"/>
      <point x="609" y="1150" type="line"/>
      <point x="480" y="1095" type="line"/>
      <point x="153" y="969" type="line"/>
    </contour>
  </outline>
</glyph>
<glyph name="hyphen" format="1">
  <advance width="1266"/>
  <unicode hex="002D"/>
  <outline>
    <contour>
      <point x="223" y="648" type="line"/>
      <point x="1063" y="648" type="line"/>
      <point x="1100" y="896" type="line"/>
      <point x="260" y="896" type="line"/>
    </contour>
  </outline>
</glyph>
<glyph name="two" format="1">
  <advance width="1289"/>
  <unicode hex="0032"/>
  <outline>
    <contour>
      <point x="97" y="0" type="line"/>
      <point x="1140" y="0" type="line"/>
      <point x="1185" y="253" type="line"/>
      <point x="582" y="231" type="line"/>
      <point x="841" y="373"/>
      <point x="1095" y="535"/>
      <point x="1095" y="820" type="curve" smooth="yes"/>
      <point x="1095" y="995"/>
      <point x="958" y="1156"/>
      <point x="663" y="1156" type="curve" smooth="yes"/>
      <point x="451" y="1156"/>
      <point x="258" y="1025"/>
      <point x="177" y="940" type="curve"/>
      <point x="296" y="751" type="line"/>
      <point x="372" y="814"/>
      <point x="507" y="874"/>
      <point x="590" y="874" type="curve" smooth="yes"/>
      <point x="662" y="874"/>
      <point x="706" y="834"/>
      <point x="706" y="766" type="curve" smooth="yes"/>
      <point x="706" y="602"/>
      <point x="403" y="330"/>
      <point x="51" y="142" type="curve"/>
    </contour>
  </outline>
</glyph>
<glyph name="eight" format="1">
  <advance width="1390"/>
  <unicode hex="0038"/>
  <outline>
    <contour>
      <point x="126" y="350" type="curve" smooth="yes"/>
      <point x="127" y="115"/>
      <point x="343" y="-20"/>
      <point x="638" y="-20" type="curve" smooth="yes"/>
      <point x="967" y="-20"/>
      <point x="1214" y="137"/>
      <point x="1214" y="403" type="curve" smooth="yes"/>
      <point x="1214" y="582"/>
      <point x="1088" y="708"/>
      <point x="955" y="813" type="curve"/>
      <point x="1127" y="875"/>
      <point x="1289" y="980"/>
      <point x="1289" y="1210" type="curve" smooth="yes"/>
      <point x="1289" y="1412"/>
      <point x="1094" y="1549"/>
      <point x="827" y="1549" type="curve" smooth="yes"/>
      <point x="524" y="1549"/>
      <point x="321" y="1385"/>
      <point x="321" y="1111" type="curve" smooth="yes"/>
      <point x="321" y="967"/>
      <point x="400" y="860"/>
      <point x="497" y="770" type="curve"/>
      <point x="307" y="711"/>
      <point x="125" y="585"/>
    </contour>
    <contour>
      <point x="822" y="914" type="curve"/>
      <point x="725" y="989"/>
      <point x="649" y="1059"/>
      <point x="649" y="1140" type="curve" smooth="yes"/>
      <point x="649" y="1257"/>
      <point x="704" y="1340"/>
      <point x="811" y="1340" type="curve" smooth="yes"/>
      <point x="896" y="1340"/>
      <point x="979" y="1284"/>
      <point x="979" y="1180" type="curve" smooth="yes"/>
      <point x="979" y="1052"/>
      <point x="907" y="971"/>
    </contour>
    <contour>
      <point x="461" y="398" type="curve" smooth="yes"/>
      <point x="461" y="534"/>
      <point x="536" y="608"/>
      <point x="623" y="665" type="curve"/>
      <point x="746" y="569"/>
      <point x="861" y="484"/>
      <point x="861" y="374" type="curve" smooth="yes"/>
      <point x="861" y="267"/>
      <point x="792" y="196"/>
      <point x="677" y="196" type="curve" smooth="yes"/>
      <point x="572" y="196"/>
      <point x="461" y="281"/>
    </contour>
  </outline>
</glyph>
<glyph name="R" format="1">
  <advance width="1344"/>
  <unicode hex="0052"/>
  <outline>
    <contour>
      <point x="72" y="0" type="line"/>
      <point x="426" y="0" type="line"/>
      <point x="511" y="573" type="line"/>
      <point x="565" y="573"/>
      <point x="668" y="573"/>
      <point x="668" y="573" type="curve"/>
      <point x="700" y="573"/>
      <point x="760" y="481"/>
      <point x="803" y="306" type="curve"/>
      <point x="852" y="122"/>
      <point x="865" y="36"/>
      <point x="890" y="0" type="curve"/>
      <point x="1282" y="0" type="line"/>
      <point x="1243" y="56"/>
      <point x="1228" y="105"/>
      <point x="1143" y="367" type="curve"/>
      <point x="1104" y="515"/>
      <point x="1042" y="623"/>
      <point x="977" y="659" type="curve"/>
      <point x="908" y="620" type="line"/>
      <point x="1217" y="663"/>
      <point x="1329" y="896"/>
      <point x="1329" y="1153" type="curve" smooth="yes"/>
      <point x="1329" y="1403"/>
      <point x="1180" y="1546"/>
      <point x="781" y="1546" type="curve" smooth="yes"/>
      <point x="650" y="1546"/>
      <point x="611" y="1530"/>
      <point x="492" y="1530" type="curve" smooth="yes"/>
      <point x="290" y="1530" type="line"/>
    </contour>
    <contour>
      <point x="548" y="848" type="curve"/>
      <point x="610" y="1290" type="line"/>
      <point x="639" y="1295"/>
      <point x="700" y="1300"/>
      <point x="747" y="1300" type="curve" smooth="yes"/>
      <point x="896" y="1300"/>
      <point x="979" y="1265"/>
      <point x="984" y="1136" type="curve" smooth="yes"/>
      <point x="988" y="1017"/>
      <point x="934" y="845"/>
      <point x="743" y="845" type="curve" smooth="yes"/>
      <point x="701" y="845"/>
      <point x="602" y="845"/>
    </contour>
    <contour>
      <point x="602" y="-170" type="move" name="btm"/>
    </contour>
    <contour>
      <point x="793" y="1700" type="move" name="top"/>
    </contour>
  </outline>
</glyph>
<glyph name="V" format="1">
  <advance width="1233"/>
  <unicode hex="0056"/>
  <outline>
    <contour>
      <point x="328" y="0" type="line"/>
      <point x="740" y="0" type="line"/>
      <point x="1400" y="1530" type="line"/>
      <point x="1025" y="1530" type="line"/>
      <point x="669" y="550" type="line"/>
      <point x="592" y="288" type="line"/>
      <point x="575" y="550" type="line"/>
      <point x="457" y="1530" type="line"/>
      <point x="103" y="1530" type="line"/>
    </contour>
    <contour>
      <point x="716" y="-170" type="move" name="btm"/>
    </contour>
    <contour>
      <point x="972" y="1700" type="move" name="top"/>
    </contour>
  </outline>
</glyph>
<glyph name="Y" format="1">
  <advance width="1164"/>
  <unicode hex="0059"/>
  <outline>
    <contour>
      <point x="317" y="0" type="line"/>
      <point x="671" y="0" type="line"/>
      <point x="756" y="590" type="line"/>
      <point x="1356" y="1530" type="line"/>
      <point x="963" y="1530" type="line"/>
      <point x="679" y="1005" type="line"/>
      <point x="621" y="871" type="line"/>
      <point x="596" y="1005" type="line"/>
      <point x="455" y="1530" type="line"/>
      <point x="83" y="1530" type="line"/>
      <point x="402" y="590" type="line"/>
    </contour>
    <contour>
      <point x="519" y="-170" type="move" name="btm"/>
    </contour>
    <contour>
      <point x="682" y="1700" type="move" name="top"/>
    </contour>
  </outline>
</glyph>
<glyph name="p" format="1">
  <advance width="1285"/>
  <unicode hex="0070"/>
  <outline>
    <contour>
      <point x="8" y="-492" type="line"/>
      <point x="360" y="-492" type="line"/>
      <point x="538" y="761" type="line"/>
      <point x="555" y="884" type="line"/>
      <point x="558" y="1140" type="line"/>
      <point x="231" y="1140" type="line"/>
    </contour>
    <contour>
      <point x="512" y="-16" type="curve" smooth="yes"/>
      <point x="980" y="-16"/>
      <point x="1215" y="362"/>
      <point x="1215" y="731" type="curve" smooth="yes"/>
      <point x="1215" y="961"/>
      <point x="1131" y="1156"/>
      <point x="879" y="1156" type="curve" smooth="yes"/>
      <point x="643" y="1156"/>
      <point x="527" y="876"/>
      <point x="506" y="764" type="curve"/>
      <point x="499" y="499" type="line"/>
      <point x="530" y="633"/>
      <point x="642" y="912"/>
      <point x="754" y="912" type="curve" smooth="yes"/>
      <point x="814" y="912"/>
      <point x="842" y="846"/>
      <point x="842" y="710" type="curve" smooth="yes"/>
      <point x="842" y="469"/>
      <point x="742" y="194"/>
      <point x="536" y="194" type="curve" smooth="yes"/>
      <point x="449" y="194"/>
      <point x="377" y="205"/>
      <point x="330" y="280" type="curve"/>
      <point x="256" y="32" type="line"/>
      <point x="315" y="10"/>
      <point x="424" y="-16"/>
    </contour>
    <contour>
      <point x="864" y="1255" type="move" name="top"/>
    </contour>
  </outline>
</glyph>
<glyph name="v" format="1">
  <advance width="1138"/>
  <unicode hex="0076"/>
  <outline>
    <contour>
      <point x="250" y="-21" type="line"/>
      <point x="528" y="-9" type="line"/>
      <point x="548" y="8" type="line" smooth="yes"/>
      <point x="852" y="259"/>
      <point x="1107" y="626"/>
      <point x="1107" y="982" type="curve" smooth="yes"/>
      <point x="1107" y="1090"/>
      <point x="1099" y="1122"/>
      <point x="1096" y="1140" type="curve"/>
      <point x="767" y="1140" type="line"/>
      <point x="767" y="1038"/>
      <point x="751" y="883"/>
      <point x="740" y="817" type="curve" smooth="yes"/>
      <point x="714" y="633"/>
      <point x="645" y="462"/>
      <point x="569" y="341" type="curve" smooth="yes"/>
      <point x="520" y="276" type="line"/>
      <point x="506" y="475" type="line"/>
      <point x="444" y="1140" type="line"/>
      <point x="93" y="1140" type="line"/>
      <point x="195" y="355" type="line"/>
    </contour>
    <contour>
      <point x="704" y="1255" type="move" name="top"/>
    </contour>
  </outline>
</glyph>
<glyph name="y" format="1">
  <advance width="1140"/>
  <unicode hex="0079"/>
  <outline>
    <contour>
      <point x="521" y="455" type="line"/>
      <point x="447" y="1140" type="line"/>
      <point x="95" y="1140" type="line"/>
      <point x="209" y="355" type="line"/>
      <point x="265" y="-20" type="line"/>
      <point x="571" y="-20" type="line"/>
    </contour>
    <contour>
      <point x="485" y="1" type="curve"/>
      <point x="360" y="-194"/>
      <point x="292" y="-259"/>
      <point x="171" y="-259" type="curve" smooth="yes"/>
      <point x="117" y="-259"/>
      <point x="42" y="-229"/>
      <point x="-3" y="-198" type="curve"/>
      <point x="-92" y="-442" type="line"/>
      <point x="-33" y="-477"/>
      <point x="59" y="-517"/>
      <point x="168" y="-517" type="curve" smooth="yes"/>
      <point x="445" y="-517"/>
      <point x="535" y="-348"/>
      <point x="682" y="-148" type="curve" smooth="yes"/>
      <point x="764" y="-36"/>
      <point x="865" y="128"/>
      <point x="951" y="332" type="curve" smooth="yes"/>
      <point x="1034" y="528"/>
      <point x="1100" y="751"/>
      <point x="1100" y="987" type="curve" smooth="yes"/>
      <point x="1100" y="1065"/>
      <point x="1098" y="1120"/>
      <point x="1094" y="1140" type="curve"/>
      <point x="774" y="1140" type="line"/>
      <point x="774" y="1090"/>
      <point x="775" y="1036"/>
      <point x="771" y="978" type="curve" smooth="yes"/>
      <point x="753" y="703"/>
      <point x="734" y="617"/>
      <point x="672" y="438" type="curve"/>
      <point x="602" y="218"/>
      <point x="541" y="110"/>
    </contour>
    <contour>
      <point x="602" y="1255" type="move" name="top"/>
    </contour>
  </outline>
</glyph>
<glyph name="z" format="1">
  <advance width="984"/>
  <unicode hex="007A"/>
  <outline>
    <contour>
      <point x="-45" y="45" type="line"/>
      <point x="-10" y="0" type="line"/>
      <point x="339" y="201" type="line"/>
      <point x="482" y="303" type="line"/>
      <point x="1027" y="1096" type="line"/>
      <point x="992" y="1140" type="line"/>
      <point x="646" y="935" type="line"/>
      <point x="509" y="835" type="line"/>
    </contour>
    <contour>
      <point x="133" y="873" type="line"/>
      <point x="838" y="873" type="line"/>
      <point x="1027" y="1096" type="line"/>
      <point x="992" y="1140" type="line"/>
      <point x="170" y="1140" type="line"/>
    </contour>
    <contour>
      <point x="-10" y="0" type="line"/>
      <point x="867" y="0" type="line"/>
      <point x="895" y="272" type="line"/>
      <point x="175" y="272" type="line"/>
      <point x="35" y="58" type="line"/>
    </contour>
    <contour>
      <point x="652" y="1255" type="move" name="top"/>
    </contour>
  </outline>
</glyph>
<glyph name="bar" format="1">
  <advance width="854"/>
  <unicode hex="007C"/>
  <outline>
    <contour>
      <point x="320" y="-186" type="line"/>
      <point x="573" y="-186" type="line"/>
      <point x="573" y="1780" type="line"/>
      <point x="320" y="1780" type="line"/>
    </contour>
  </outline>
</glyph>
<glyph name="asciitilde" format="1">
  <advance width="1137"/>
  <unicode hex="007E"/>
  <outline>
    <contour>
      <point x="224" y="745" type="line"/>
      <point x="263" y="795"/>
      <point x="323" y="854"/>
      <point x="396" y="854" type="curve" smooth="yes"/>
      <point x="549" y="854"/>
      <point x="601" y="672"/>
      <point x="804" y="672" type="curve" smooth="yes"/>
      <point x="950" y="672"/>
      <point x="1108" y="789"/>
      <point x="1136" y="902" type="curve"/>
      <point x="1002" y="1041" type="line"/>
      <point x="952" y="971"/>
      <point x="893" y="934"/>
      <point x="820" y="934" type="curve" smooth="yes"/>
      <point x="691" y="934"/>
      <point x="611" y="1106"/>
      <point x="418" y="1106" type="curve" smooth="yes"/>
      <point x="272" y="1106"/>
      <point x="107" y="987"/>
      <point x="76" y="886" type="curve"/>
    </contour>
  </outline>
</glyph>
<glyph name="acute" format="1">
  <advance width="565"/>
  <unicode hex="00B4"/>
  <outline>
    <contour>
      <point x="143" y="1226" type="line"/>
      <point x="264" y="1272"/>
      <point x="526" y="1506"/>
      <point x="562" y="1574" type="curve"/>
      <point x="353" y="1774" type="line"/>
      <point x="19" y="1325" type="line"/>
    </contour>
    <contour>
      <point x="150" y="1255" type="move" name="_top"/>
    </contour>
  </outline>
</glyph>
<glyph name="paragraph" format="1">
  <advance width="1364"/>
  <unicode hex="00B6"/>
  <outline>
    <contour>
      <point x="340" y="0" type="line"/>
      <point x="616" y="0" type="line"/>
      <point x="789" y="1322" type="line"/>
      <point x="983" y="1322" type="line"/>
      <point x="812" y="0" type="line"/>
      <point x="1091" y="0" type="line"/>
      <point x="1266" y="1327" type="line"/>
      <point x="1433" y="1360" type="line"/>
      <point x="1458" y="1552" type="line"/>
      <point x="1110" y="1552" type="line"/>
      <point x="990" y="1552"/>
      <point x="880" y="1571"/>
      <point x="716" y="1571" type="curve" smooth="yes"/>
      <point x="244" y="1571"/>
      <point x="75" y="1343"/>
      <point x="80" y="1073" type="curve" smooth="yes"/>
      <point x="84" y="855"/>
      <point x="228" y="683"/>
      <point x="442" y="678" type="curve"/>
    </contour>
  </outline>
</glyph>
<glyph name="Eth" format="1">
  <advance width="1438"/>
  <unicode hex="00D0"/>
  <outline>
    <contour>
      <point x="29" y="673" type="line"/>
      <point x="839" y="673" type="line"/>
      <point x="865" y="924" type="line"/>
      <point x="54" y="924" type="line"/>
    </contour>
    <component base="D" xOffset="13" yOffset="2"/>
  </outline>
</glyph>
<glyph name="multiply" format="1">
  <advance width="1397"/>
  <unicode hex="00D7"/>
  <outline>
    <contour>
      <point x="339" y="248" type="line"/>
      <point x="710" y="608" type="line"/>
      <point x="1009" y="247" type="line"/>
      <point x="1218" y="432" type="line"/>
      <point x="897" y="769" type="line"/>
      <point x="1290" y="1105" type="line"/>
      <point x="1117" y="1312" type="line"/>
      <point x="738" y="951" type="line"/>
      <point x="447" y="1312" type="line"/>
      <point x="238" y="1127" type="line"/>
      <point x="551" y="790" type="line"/>
      <point x="166" y="454" type="line"/>
    </contour>
  </outline>
</glyph>
<glyph name="ae" format="1">
  <advance width="1770"/>
  <unicode hex="00E6"/>
  <outline>
    <contour>
      <point x="743" y="591" type="line"/>
      <point x="710" y="416"/>
      <point x="590" y="246"/>
      <point x="519" y="246" type="curve" smooth="yes"/>
      <point x="459" y="246"/>
      <point x="440" y="297"/>
      <point x="440" y="433" type="curve" smooth="yes"/>
      <point x="440" y="674"/>
      <point x="555" y="946"/>
      <point x="796" y="946" type="curve" smooth="yes"/>
      <point x="863" y="946"/>
      <point x="976" y="925"/>
      <point x="1012" y="850" type="curve"/>
      <point x="1129" y="1055" type="line"/>
      <point x="1081" y="1107"/>
      <point x="957" y="1156"/>
      <point x="821" y="1156" type="curve" smooth="yes"/>
      <point x="318" y="1156"/>
      <point x="68" y="781"/>
      <point x="68" y="412" type="curve" smooth="yes"/>
      <point x="68" y="182"/>
      <point x="142" y="-16"/>
      <point x="394" y="-16" type="curve" smooth="yes"/>
      <point x="591" y="-16"/>
      <point x="719" y="199"/>
      <point x="773" y="358" type="curve"/>
    </contour>
    <contour>
      <point x="731" y="442" type="curve" smooth="yes"/>
      <point x="731" y="205"/>
      <point x="855" y="-16"/>
      <point x="1164" y="-16" type="curve" smooth="yes"/>
      <point x="1424" y="-16"/>
      <point x="1608" y="133"/>
      <point x="1667" y="218" type="curve"/>
      <point x="1575" y="389" type="line"/>
      <point x="1526" y="324"/>
      <point x="1379" y="226"/>
      <point x="1252" y="226" type="curve" smooth="yes"/>
      <point x="1134" y="226"/>
      <point x="1107" y="287"/>
      <point x="1107" y="383" type="curve"/>
      <point x="1440" y="467"/>
      <point x="1714" y="594"/>
      <point x="1714" y="893" type="curve" smooth="yes"/>
      <point x="1714" y="1054"/>
      <point x="1610" y="1156"/>
      <point x="1374" y="1156" type="curve" smooth="yes"/>
      <point x="1015" y="1156"/>
      <point x="731" y="887"/>
    </contour>
    <contour>
      <point x="1102" y="561" type="curve"/>
      <point x="1105" y="701"/>
      <point x="1168" y="960"/>
      <point x="1295" y="960" type="curve" smooth="yes"/>
      <point x="1348" y="960"/>
      <point x="1370" y="929"/>
      <point x="1370" y="859" type="curve" smooth="yes"/>
      <point x="1370" y="698"/>
      <point x="1220" y="568"/>
    </contour>
    <contour>
      <point x="1010" y="1255" type="move" name="top"/>
    </contour>
  </outline>
</glyph>
<glyph name="Hbar" format="1">
  <advance width="1512"/>
  <unicode hex="0126"/>
  <outline>
    <contour>
      <point x="-1" y="917" type="line"/>
      <point x="1613" y="917" type="line"/>
      <point x="1639" y="1168" type="line"/>
      <point x="24" y="1168" type="line"/>
    </contour>
    <contour>
      <point x="84" y="0" type="line"/>
      <point x="438" y="0" type="line"/>
      <point x="657" y="1530" type="line"/>
      <point x="303" y="1530" type="line"/>
    </contour>
    <contour>
      <point x="920" y="0" type="line"/>
      <point x="1278" y="0" type="line"/>
      <point x="1497" y="1530" type="line"/>
      <point x="1139" y="1530" type="line"/>
    </contour>
    <contour>
      <point x="439" y="441" type="line"/>
      <point x="1168" y="441" type="line"/>
      <point x="1169" y="692" type="line"/>
      <point x="439" y="692" type="line"/>
    </contour>
    <contour>
      <point x="812" y="-168" type="move" name="btm"/>
    </contour>
    <contour>
      <point x="871" y="1700" type="move" name="top"/>
    </contour>
  </outline>
</glyph>
<glyph name="lacute" format="1">
  <advance width="665"/>
  <unicode hex="013A"/>
  <outline>
    <contour>
      <point x="83" y="0" type="line"/>
      <point x="440" y="0" type="line"/>
      <point x="648" y="1530" type="line"/>
      <point x="289" y="1530" type="line"/>
    </contour>
    <component base="acute.cap" xOffset="313"/>
  </outline>
</glyph>
<glyph name="breve" format="1">
  <advance width="724"/>
  <unicode hex="02D8"/>
  <outline>
    <contour>
      <point x="361" y="1300" type="curve" smooth="yes"/>
      <point x="616" y="1300"/>
      <point x="725" y="1488"/>
      <point x="725" y="1647" type="curve" smooth="yes"/>
      <point x="725" y="1658"/>
      <point x="725" y="1670"/>
      <point x="724" y="1681" type="curve"/>
      <point x="540" y="1681" type="line"/>
      <point x="527" y="1601"/>
      <point x="495" y="1517"/>
      <point x="377" y="1517" type="curve" smooth="yes"/>
      <point x="259" y="1517"/>
      <point x="233" y="1556"/>
      <point x="233" y="1636" type="curve" smooth="yes"/>
      <point x="233" y="1652"/>
      <point x="235" y="1667"/>
      <point x="237" y="1681" type="curve"/>
      <point x="49" y="1681" type="line"/>
      <point x="44" y="1663"/>
      <point x="37" y="1619"/>
      <point x="37" y="1596" type="curve" smooth="yes"/>
      <point x="37" y="1416"/>
      <point x="121" y="1300"/>
    </contour>
    <contour>
      <point x="338" y="1255" type="move" name="_top"/>
    </contour>
  </outline>
</glyph>
<glyph name="ring" format="1">
  <advance width="729"/>
  <unicode hex="02DA"/>
  <outline>
    <contour>
      <point x="365" y="1253" type="curve" smooth="yes"/>
      <point x="548" y="1253"/>
      <point x="748" y="1354"/>
      <point x="748" y="1567" type="curve" smooth="yes"/>
      <point x="748" y="1729"/>
      <point x="619" y="1804"/>
      <point x="442" y="1804" type="curve" smooth="yes"/>
      <point x="286" y="1804"/>
      <point x="52" y="1732"/>
      <point x="52" y="1497" type="curve" smooth="yes"/>
      <point x="52" y="1339"/>
      <point x="174" y="1253"/>
    </contour>
    <contour>
      <point x="387" y="1396" type="curve" smooth="yes"/>
      <point x="319" y="1396"/>
      <point x="248" y="1449"/>
      <point x="248" y="1520" type="curve" smooth="yes"/>
      <point x="248" y="1628"/>
      <point x="340" y="1664"/>
      <point x="417" y="1664" type="curve" smooth="yes"/>
      <point x="487" y="1664"/>
      <point x="553" y="1612"/>
      <point x="553" y="1539" type="curve" smooth="yes"/>
      <point x="553" y="1424"/>
      <point x="464" y="1396"/>
    </contour>
    <contour>
      <point x="349" y="1255" type="move" name="_top"/>
    </contour>
  </outline>
</glyph>
<glyph name="ogonek" format="1">
  <advance width="651"/>
  <unicode hex="02DB"/>
  <outline>
    <contour>
      <point x="-9" y="-306" type="curve" smooth="yes"/>
      <point x="-9" y="-411"/>
      <point x="56" y="-480"/>
      <point x="186" y="-480" type="curve" smooth="yes"/>
      <point x="332" y="-480"/>
      <point x="451" y="-409"/>
      <point x="533" y="-326" type="curve"/>
      <point x="497" y="-212" type="line"/>
      <point x="440" y="-256"/>
      <point x="398" y="-287"/>
      <point x="342" y="-287" type="curve" smooth="yes"/>
      <point x="303" y="-287"/>
      <point x="275" y="-272"/>
      <point x="275" y="-215" type="curve" smooth="yes"/>
      <point x="275" y="-141"/>
      <point x="392" y="-48"/>
      <point x="529" y="38" type="curve"/>
      <point x="407" y="59" type="line"/>
      <point x="344" y="45" type="line"/>
      <point x="258" y="12"/>
      <point x="-9" y="-121"/>
    </contour>
    <contour>
      <point x="300" y="-170" type="move" name="_btm"/>
    </contour>
  </outline>
</glyph>
<glyph name="pi" format="1">
  <advance width="1603"/>
  <unicode hex="03C0"/>
  <outline>
    <contour>
      <point x="1112" y="-16" type="curve" smooth="yes"/>
      <point x="1334" y="-16"/>
      <point x="1492" y="113"/>
      <point x="1550" y="227" type="curve"/>
      <point x="1440" y="358" type="line"/>
      <point x="1398" y="312"/>
      <point x="1333" y="237"/>
      <point x="1262" y="237" type="curve" smooth="yes"/>
      <point x="1224" y="237"/>
      <point x="1201" y="270"/>
      <point x="1205" y="356" type="curve" smooth="yes"/>
      <point x="1239" y="1083" type="line"/>
      <point x="970" y="1081" type="line"/>
      <point x="880" y="290" type="line"/>
      <point x="860" y="92"/>
      <point x="942" y="-16"/>
    </contour>
    <contour>
      <point x="147" y="770" type="line"/>
      <point x="188" y="809"/>
      <point x="229" y="850"/>
      <point x="336" y="850" type="curve" smooth="yes"/>
      <point x="1252" y="851" type="line" smooth="yes"/>
      <point x="1479" y="851"/>
      <point x="1576" y="953"/>
      <point x="1583" y="1215" type="curve"/>
      <point x="1387" y="1215" type="line"/>
      <point x="1369" y="1161"/>
      <point x="1334" y="1140"/>
      <point x="1252" y="1140" type="curve" smooth="yes"/>
      <point x="371" y="1140" type="line" smooth="yes"/>
      <point x="172" y="1140"/>
      <point x="14" y="1031"/>
      <point x="0" y="833" type="curve"/>
    </contour>
    <contour>
      <point x="122" y="135" type="curve"/>
      <point x="326" y="-16" type="line"/>
      <point x="417" y="-12"/>
      <point x="485" y="20"/>
      <point x="527" y="52" type="curve" smooth="yes"/>
      <point x="617" y="131"/>
      <point x="662" y="192"/>
      <point x="674" y="408" type="curve" smooth="yes"/>
      <point x="719" y="1081" type="line"/>
      <point x="435" y="1081" type="line"/>
      <point x="352" y="495" type="line" smooth="yes"/>
      <point x="338" y="372"/>
      <point x="313" y="263"/>
      <point x="208" y="178" type="curve" smooth="yes"/>
      <point x="176" y="154"/>
      <point x="140" y="139"/>
    </contour>
  </outline>
</glyph>
<glyph name="emdash" format="1">
  <advance width="2031"/>
  <unicode hex="2014"/>
  <outline>
    <contour>
      <point x="223" y="648" type="line"/>
      <point x="1795" y="648" type="line"/>
      <point x="1832" y="896" type="line"/>
      <point x="260" y="896" type="line"/>
    </contour>
  </outline>
</glyph>
<glyph name="lira" format="1">
  <advance width="1506"/>
  <unicode hex="20A4"/>
  <outline>
    <contour>
      <point x="229" y="889" type="line"/>
      <point x="244" y="1043" type="line"/>
      <point x="424" y="1043" type="line"/>
      <point x="429" y="1071" type="line" smooth="yes"/>
      <point x="466" y="1303"/>
      <point x="623" y="1545"/>
      <point x="967" y="1545" type="curve" smooth="yes"/>
      <point x="1187" y="1545"/>
      <point x="1302" y="1472"/>
      <point x="1347" y="1435" type="curve"/>
      <point x="1194" y="1205" type="line"/>
      <point x="1184" y="1233"/>
      <point x="1098" y="1333"/>
      <point x="975" y="1333" type="curve" smooth="yes"/>
      <point x="850" y="1333"/>
      <point x="772" y="1270"/>
      <point x="735" y="1051" type="curve"/>
      <point x="733" y="1043" type="line"/>
      <point x="1007" y="1043" type="line"/>
      <point x="993" y="889" type="line"/>
      <point x="708" y="889" type="line"/>
      <point x="682" y="736" type="line"/>
      <point x="949" y="736" type="line"/>
      <point x="934" y="582" type="line"/>
      <point x="656" y="582" type="line"/>
      <point x="656" y="579" type="line" smooth="yes"/>
      <point x="629" y="412"/>
      <point x="586" y="330"/>
      <point x="538" y="269" type="curve"/>
      <point x="609" y="245"/>
      <point x="761" y="210"/>
      <point x="873" y="210" type="curve" smooth="yes"/>
      <point x="1061" y="210"/>
      <point x="1146" y="276"/>
      <point x="1146" y="369" type="curve" smooth="yes"/>
      <point x="1146" y="424"/>
      <point x="1097" y="483"/>
      <point x="1070" y="496" type="curve"/>
      <point x="1267" y="654" type="line"/>
      <point x="1363" y="603"/>
      <point x="1430" y="472"/>
      <point x="1430" y="368" type="curve" smooth="yes"/>
      <point x="1430" y="220"/>
      <point x="1377" y="-20"/>
      <point x="945" y="-20" type="curve" smooth="yes"/>
      <point x="689" y="-20"/>
      <point x="507" y="68"/>
      <point x="344" y="89" type="curve"/>
      <point x="290" y="24"/>
      <point x="199" y="-20"/>
      <point x="126" y="-20" type="curve" smooth="yes"/>
      <point x="29" y="-20"/>
      <point x="-17" y="40"/>
      <point x="-17" y="104" type="curve" smooth="yes"/>
      <point x="-17" y="214"/>
      <point x="118" y="291"/>
      <point x="252" y="299" type="curve"/>
      <point x="281" y="328"/>
      <point x="313" y="392"/>
      <point x="328" y="484" type="curve" smooth="yes"/>
      <point x="345" y="582" type="line"/>
      <point x="170" y="582" type="line"/>
      <point x="185" y="736" type="line"/>
      <point x="371" y="736" type="line"/>
      <point x="398" y="889" type="line"/>
    </contour>
  </outline>
</glyph>
<glyph name="guarani" format="1">
  <advance width="1517"/>
  <unicode hex="20B2"/>
  <outline>
    <contour>
      <point x="610" y="-258" type="line"/>
      <point x="642" y="-13" type="line"/>
      <point x="255" y="16"/>
      <point x="124" y="324"/>
      <point x="124" y="611" type="curve"/>
      <point x="121" y="1131"/>
      <point x="427" y="1492"/>
      <point x="826" y="1540" type="curve"/>
      <point x="861" y="1774" type="line"/>
      <point x="1061" y="1774" type="line"/>
      <point x="1027" y="1541" type="line"/>
      <point x="1152" y="1530"/>
      <point x="1234" y="1506"/>
      <point x="1285" y="1490" type="curve"/>
      <point x="1367" y="1462" type="line"/>
      <point x="1296" y="1171" type="line"/>
      <point x="1248" y="1208"/>
      <point x="1095" y="1285"/>
      <point x="910" y="1285" type="curve" smooth="yes"/>
      <point x="563" y="1285"/>
      <point x="448" y="920"/>
      <point x="448" y="632" type="curve" smooth="yes"/>
      <point x="448" y="388"/>
      <point x="540" y="225"/>
      <point x="753" y="225" type="curve" smooth="yes"/>
      <point x="809" y="225"/>
      <point x="917" y="235"/>
      <point x="979" y="267" type="curve"/>
      <point x="1025" y="570" type="line"/>
      <point x="780" y="570" type="line"/>
      <point x="810" y="823" type="line"/>
      <point x="1354" y="823" type="line"/>
      <point x="1252" y="82" type="line"/>
      <point x="1223" y="79"/>
      <point x="1193" y="73"/>
      <point x="1137" y="57" type="curve" smooth="yes"/>
      <point x="1060" y="34"/>
      <point x="961" y="6"/>
      <point x="842" y="-7" type="curve"/>
      <point x="810" y="-258" type="line"/>
    </contour>
  </outline>
</glyph>
<glyph name="notequal" format="1">
  <advance width="1084"/>
  <unicode hex="2260"/>
  <outline>
    <contour>
      <point x="136" y="0" type="line"/>
      <point x="358" y="0" type="line"/>
      <point x="982" y="1350" type="line"/>
      <point x="759" y="1350" type="line"/>
    </contour>
    <component base="equal"/>
  </outline>
</glyph>
<glyph name="greaterequal" format="1">
  <advance width="1391"/>
  <unicode hex="2265"/>
  <outline>
    <contour>
      <point x="163" y="0" type="line"/>
      <point x="180" y="207" type="line"/>
      <point x="1124" y="207" type="line"/>
      <point x="1108" y="0" type="line"/>
    </contour>
    <contour>
      <point x="188" y="251" type="line"/>
      <point x="224" y="552" type="line"/>
      <point x="727" y="750" type="line"/>
      <point x="281" y="976" type="line"/>
      <point x="312" y="1255" type="line"/>
      <point x="1223" y="768" type="line"/>
      <point x="1207" y="669" type="line"/>
    </contour>
  </outline>
</glyph>
<glyph name="breve.cap" format="1">
  <advance width="722"/>
  <outline>
    <contour>
      <point x="361" y="1633" type="curve" smooth="yes"/>
      <point x="616" y="1633"/>
      <point x="725" y="1821"/>
      <point x="725" y="1980" type="curve" smooth="yes"/>
      <point x="725" y="1991"/>
      <point x="725" y="2003"/>
      <point x="724" y="2014" type="curve"/>
      <point x="540" y="2014" type="line"/>
      <point x="527" y="1934"/>
      <point x="495" y="1850"/>
      <point x="377" y="1850" type="curve" smooth="yes"/>
      <point x="259" y="1850"/>
      <point x="233" y="1889"/>
      <point x="233" y="1969" type="curve" smooth="yes"/>
      <point x="233" y="1985"/>
      <point x="235" y="2000"/>
      <point x="237" y="2014" type="curve"/>
      <point x="49" y="2014" type="line"/>
      <point x="44" y="1996"/>
      <point x="37" y="1952"/>
      <point x="37" y="1929" type="curve" smooth="yes"/>
      <point x="37" y="1749"/>
      <point x="121" y="1633"/>
    </contour>
    <contour>
      <point x="328" y="1700" type="move" name="_top"/>
    </contour>
  </outline>
</glyph>
<glyph name="ring.cap" format="1">
  <advance width="729"/>
  <outline>
    <contour>
      <point x="358" y="1471" type="curve" smooth="yes"/>
      <point x="541" y="1471"/>
      <point x="731" y="1568"/>
      <point x="731" y="1781" type="curve" smooth="yes"/>
      <point x="731" y="1940"/>
      <point x="602" y="2014"/>
      <point x="425" y="2014" type="curve" smooth="yes"/>
      <point x="269" y="2014"/>
      <point x="35" y="1946"/>
      <point x="35" y="1711" type="curve" smooth="yes"/>
      <point x="35" y="1553"/>
      <point x="167" y="1471"/>
    </contour>
    <contour>
      <point x="370" y="1610" type="curve" smooth="yes"/>
      <point x="302" y="1610"/>
      <point x="231" y="1663"/>
      <point x="231" y="1734" type="curve" smooth="yes"/>
      <point x="231" y="1842"/>
      <point x="323" y="1878"/>
      <point x="400" y="1878" type="curve" smooth="yes"/>
      <point x="470" y="1878"/>
      <point x="536" y="1826"/>
      <point x="536" y="1753" type="curve" smooth="yes"/>
      <point x="536" y="1638"/>
      <point x="447" y="1610"/>
    </contour>
    <contour>
      <point x="341" y="1700" type="move" name="_top"/>
    </contour>
  </outline>
</glyph>
